# xmcd
#
# Track frame offsets: 
#        150
#        29692
#        51446
#        65686
#        76000
#        93797
#        111937
#        121339
#        133027
#
# Disc length: 2098 seconds
#
# Revision: 0
# Processed by: cddbd v1.5.2PL0 Copyright (c) Steve Scherf et al.
# Submitted via: ExactAudioCopyFreeDBPlugin 1.0
#
DISCID=78083009
DTITLE=Andres Roots Roundabout - Leigh's Spider Jam
DYEAR=2011
DGENRE=Blues
TTITLE0=Folk Club Blues (live)
TTITLE1=Mean Old Town No. 2
TTITLE2=Spider Jam
TTITLE3=Comin' Home
TTITLE4=Roundabout
TTITLE5=Lightnin' On Horizon
TTITLE6=Horse Feathers
TTITLE7=Concrete Factory Blues
TTITLE8=Legacy Blues (live)
EXTD=
EXTT0=
EXTT1=
EXTT2=
EXTT3=
EXTT4=
EXTT5=
EXTT6=
EXTT7=
EXTT8=
PLAYORDER=
